<?xml version="1.0" standalone="no"?>
<!DOCTYPE svg PUBLIC "-//W3C//DTD SVG 20010904//EN"
 "http://www.w3.org/TR/2001/REC-SVG-20010904/DTD/svg10.dtd">
<svg version="1.0" xmlns="http://www.w3.org/2000/svg"
 width="64.000000pt" height="64.000000pt" viewBox="0 0 64.000000 64.000000"
 preserveAspectRatio="xMidYMid meet">

<g transform="translate(0.000000,64.000000) scale(0.100000,-0.100000)"
fill="#000000" stroke="none">
<path d="M75 631 c-11 -5 -31 -21 -45 -36 l-25 -27 0 -249 0 -249 33 -32 c31
-32 35 -33 115 -33 l82 0 3 42 c3 43 3 43 -31 43 -38 0 -52 10 -91 63 -24 33
-25 37 -8 37 10 0 31 -13 45 -30 34 -38 79 -41 94 -7 10 22 7 24 -39 41 -61
22 -88 61 -88 129 0 27 5 58 11 70 7 12 13 41 14 64 1 24 5 46 8 50 4 4 22 -1
41 -9 47 -23 205 -23 252 0 19 8 37 13 41 9 3 -4 7 -26 8 -50 1 -23 7 -52 14
-64 16 -30 14 -109 -4 -142 -13 -27 -85 -71 -114 -71 -7 0 -9 -5 -4 -13 4 -6
10 -46 13 -87 l5 -75 82 0 c80 0 84 1 115 33 l33 32 0 250 0 250 -33 32 -32
33 -238 2 c-130 1 -246 -2 -257 -6z"/>
</g>
</svg>
