<?xml version="1.0" standalone="no"?>
<!DOCTYPE svg PUBLIC "-//W3C//DTD SVG 20010904//EN"
 "http://www.w3.org/TR/2001/REC-SVG-20010904/DTD/svg10.dtd">
<svg version="1.0" xmlns="http://www.w3.org/2000/svg"
 width="64.000000pt" height="64.000000pt" viewBox="0 0 64.000000 64.000000"
 preserveAspectRatio="xMidYMid meet">

<g transform="translate(0.000000,64.000000) scale(0.100000,-0.100000)"
fill="#000000" stroke="none">
<path d="M29 611 l-29 -29 0 -262 0 -262 29 -29 29 -29 262 0 262 0 29 29 29
29 0 262 0 262 -29 29 -29 29 -262 0 -262 0 -29 -29z m183 -108 c39 -36 5
-102 -47 -89 -37 9 -52 48 -31 81 19 29 51 32 78 8z m3 -248 l0 -130 -40 0
-40 0 -3 119 c-1 66 0 126 3 134 3 9 18 12 42 10 l38 -3 0 -130z m125 119 c0
-14 2 -14 22 0 26 18 80 21 110 5 33 -18 48 -71 48 -169 l0 -91 -42 3 -43 3
-3 85 c-3 87 -12 110 -43 110 -33 0 -49 -39 -49 -122 l0 -78 -40 0 -40 0 0
135 0 135 40 0 c30 0 40 -4 40 -16z"/>
</g>
</svg>
