<?xml version="1.0" standalone="no"?>
<!DOCTYPE svg PUBLIC "-//W3C//DTD SVG 20010904//EN"
 "http://www.w3.org/TR/2001/REC-SVG-20010904/DTD/svg10.dtd">
<svg version="1.0" xmlns="http://www.w3.org/2000/svg"
 width="64.000000pt" height="64.000000pt" viewBox="0 0 64.000000 64.000000"
 preserveAspectRatio="xMidYMid meet">

<g transform="translate(0.000000,64.000000) scale(0.100000,-0.100000)"
fill="#000000" stroke="none">
<path d="M50 584 c-50 -53 -52 -57 -47 -100 20 -182 296 -459 477 -481 l50 -6
55 55 c33 33 55 64 55 77 0 25 -80 115 -121 136 -36 19 -60 10 -87 -31 -17
-25 -29 -34 -50 -34 -65 0 -182 115 -182 178 0 16 14 38 40 62 37 35 39 39 29
68 -14 42 -111 132 -142 132 -16 0 -41 -18 -77 -56z"/>
</g>
</svg>
